HIERARCHY
ROOT RootJoint
{
    OFFSET   0.000000   0.000000   0.000000
    CHANNELS 6 Xposition Yposition Zposition Xrotation Yrotation Zrotation
    JOINT pelvis_lowerback
    {
        OFFSET   0.000000   0.093605   0.000000
        CHANNELS 3 Xrotation Yrotation Zrotation
        JOINT lowerback_torso
        {
            OFFSET   0.000000   0.100000   0.000000
            CHANNELS 3 Xrotation Yrotation Zrotation
            JOINT torso_head
            {
                OFFSET   0.000000   0.282350   0.000000
                CHANNELS 3 Xrotation Yrotation Zrotation
                End Site
                {
                    OFFSET   0.000000   0.192650   0.000000
                }
            }
            JOINT rTorso_Clavicle
            {
                OFFSET  -0.001000   0.157500   0.000000
                CHANNELS 3 Xrotation Yrotation Zrotation
                JOINT rShoulder
                {
                    OFFSET  -0.117647   0.000000   0.000000
                    CHANNELS 3 Xrotation Yrotation Zrotation
                    JOINT rElbow
                    {
                        OFFSET  -0.245000   0.000000   0.000000
                        CHANNELS 3 Xrotation Yrotation Zrotation
                        JOINT rWrist
                        {
                            OFFSET  -0.240000   0.000000   0.000000
                            CHANNELS 3 Xrotation Yrotation Zrotation
                            End Site
                            {
                                OFFSET  -0.116353  -0.002500   0.000000
                            }
                        }
                    }
                }
            }
            JOINT lTorso_Clavicle
            {
                OFFSET   0.001000   0.157500   0.000000
                CHANNELS 3 Xrotation Yrotation Zrotation
                JOINT lShoulder
                {
                    OFFSET   0.117647   0.000000   0.000000
                    CHANNELS 3 Xrotation Yrotation Zrotation
                    JOINT lElbow
                    {
                        OFFSET   0.245000   0.000000   0.000000
                        CHANNELS 3 Xrotation Yrotation Zrotation
                        JOINT lWrist
                        {
                            OFFSET   0.240000   0.000000   0.000000
                            CHANNELS 3 Xrotation Yrotation Zrotation
                            End Site
                            {
                                OFFSET   0.116353  -0.002500   0.000000
                            }
                        }
                    }
                }
            }
        }
    }
    JOINT rHip
    {
        OFFSET  -0.100000  -0.051395   0.000000
        CHANNELS 3 Xrotation Yrotation Zrotation
        JOINT rKnee
        {
            OFFSET   0.000000  -0.410000   0.000000
            CHANNELS 3 Xrotation Yrotation Zrotation
            JOINT rAnkle
            {
                OFFSET   0.000000  -0.390000   0.000000
                CHANNELS 3 Xrotation Yrotation Zrotation
                JOINT rToeJoint
                {
                    OFFSET   0.000000  -0.050000   0.130000
                    CHANNELS 3 Xrotation Yrotation Zrotation
                    End Site
                    {
                        OFFSET  -0.010000   0.002000   0.060000
                    }
                }
            }
        }
    }
    JOINT lHip
    {
        OFFSET   0.100000  -0.051395   0.000000
        CHANNELS 3 Xrotation Yrotation Zrotation
        JOINT lKnee
        {
            OFFSET   0.000000  -0.410000   0.000000
            CHANNELS 3 Xrotation Yrotation Zrotation
            JOINT lAnkle
            {
                OFFSET   0.000000  -0.390000   0.000000
                CHANNELS 3 Xrotation Yrotation Zrotation
                JOINT lToeJoint
                {
                    OFFSET   0.000000  -0.050000   0.130000
                    CHANNELS 3 Xrotation Yrotation Zrotation
                    End Site
                    {
                        OFFSET   0.010000   0.002000   0.060000
                    }
                }
            }
        }
    }
}
MOTION
Frames: 5
Frame Time:   0.008333
 -2.466222   0.861463   4.349997  10.680445 -15.489634   0.265044  12.007927   6.311175  -0.039254   4.325549   2.553761   4.284015 -13.503569  -1.581082   1.065695   1.437425   5.278949   8.994114  -2.698066   9.928186  43.334169 179.926255  83.937620 -179.929555   2.654830   3.684767 -12.192943   8.877565   2.601154  -8.082016  23.133102   0.295465 -43.427796   0.164217 -89.074914   0.168104   2.161135  -5.353086   7.440535   4.350318   4.994668   0.159197  16.256986  -0.001029   0.001490 -23.333374   1.768459  -1.197278 -12.870813   0.009092   0.003867 -39.524064  -3.846581   4.658764  60.765357  -0.000130  -0.004527 -22.765699   6.737408   5.856351  -5.043650   0.000993   0.001083
 -2.467390   0.863000   4.360823  10.901085 -15.279733   0.688226  11.952897   6.647445  -0.266505   4.270366   2.742155   4.050800 -13.477902  -1.816562   1.023729   1.268026   5.314694   8.799701  -3.160439   9.956802  43.583450 179.926434  83.262280 -179.929841   2.480920   3.707699 -12.309418   9.140049   2.959850  -7.891495  23.392059   0.546894 -43.527302   0.137273 -89.032221   0.140618   2.023536  -5.186338   7.363042   5.058364   4.870593  -0.394281  15.767584  -0.001502   0.000862 -21.459156   1.726556  -0.614535 -16.179161   0.022915   0.004053 -40.273900  -3.708952   4.307122  58.704402  -0.000689  -0.006045 -22.800125   6.645581   5.760830  -4.989230   0.000969   0.001023
 -2.468581   0.865093   4.372001  11.166436 -14.999723   1.120672  11.866285   6.955185  -0.516710   4.220362   2.905424   3.808744 -13.434583  -2.038819   0.981680   1.137889   5.313243   8.594667  -3.572346   9.973529  43.827783 179.925714  82.606319 -179.929330   2.322710   3.791947 -12.403690   9.393046   3.321397  -7.674153  23.640318   0.789313 -43.622822   0.112352 -89.017201   0.115109   1.898826  -5.117270   7.303825   5.681640   4.747988  -0.932636  15.321946  -0.001899   0.000078 -19.187630   1.750557  -0.160884 -20.134774   0.034522   0.001161 -40.938285  -3.540855   3.891035  56.526150  -0.002388  -0.007586 -22.836215   6.555365   5.669230  -4.904635   0.001078   0.001088
 -2.469762   0.867315   4.383445  11.446945 -14.730899   1.578380  11.776126   7.259394  -0.809238   4.174728   3.065261   3.544115 -13.386734  -2.245211   0.935996   1.020438   5.300582   8.376780  -3.954103   9.986110  44.051652 179.925970  81.982473 -179.929970   2.179518   3.913739 -12.487347   9.638995   3.681683  -7.431490  23.880939   1.031989 -43.701451   0.091076 -89.011546   0.093310   1.783882  -5.100171   7.275545   6.245277   4.582603  -1.472808  14.936694  -0.002032  -0.000345 -16.742581   1.758116   0.209157 -24.392300   0.041801   0.002656 -41.552858  -3.345462   3.436673  54.464053  -0.003721  -0.008165 -22.872039   6.469781   5.582937  -4.830347   0.001124   0.001078
 -2.470908   0.869412   4.395093  11.733274 -14.500270   2.059358  11.688019   7.561881  -1.134852   4.132323   3.226800   3.258280 -13.337592  -2.436930   0.886540   0.905443   5.286128   8.148280  -4.314745   9.997899  44.252592 179.927797  81.392380 -179.932256   2.049050   4.059231 -12.569644   9.877324   4.036994  -7.175442  24.113695   1.273632 -43.765776   0.073496 -89.009211   0.075292   1.675191  -5.101224   7.274995   6.765971   4.396556  -2.024077  14.597397  -0.002013  -0.000506 -14.255275   1.759931   0.506699 -28.732071   0.044196   0.006904 -42.129683  -3.139942   2.966627  52.558579  -0.004260  -0.007728 -22.906498   6.389249   5.502242  -4.770388   0.001096   0.000991
